<svg width="841" height="720" viewBox="0 0 841 720" fill="none" xmlns="http://www.w3.org/2000/svg">
<g filter="url(#filter0_dddddd_12_3721)">
<path d="M294.13 255.254C301.2 251.361 319.955 245.979 339.807 254.674L341.004 255.198V258.502H344.323L344.909 259.089L346.319 260.5H372.44V317.454C373.073 318.617 374.16 320.234 375.55 321.632C377.136 323.227 378.877 324.304 380.585 324.446C382.869 324.637 396.705 324.681 413.273 324.651C429.686 324.622 448.598 324.522 461.072 324.439C462.778 324.145 466.968 322.268 468.731 316.65L468.234 262.519L468.216 260.5H494.853L496.263 259.089L496.849 258.502H499.171V254.628L500.459 254.137C504.811 252.481 512.233 250.612 520.574 250.274C528.91 249.937 538.344 251.122 546.563 255.764L547.579 256.338V259.501H550.169L550.759 260.426L565.728 283.903L565.775 283.979L565.817 284.059C569.431 291.035 573.343 303.734 576.774 317.721C580.215 331.751 583.22 347.285 584.978 360.091L585.228 361.689C587.82 378.544 590.491 405.527 590.491 415.353C590.491 420.944 589.96 429.718 588.359 437.939C587.558 442.05 586.477 446.084 585.03 449.535C583.623 452.894 581.787 455.893 579.348 457.806C574.868 462.259 566.949 467.514 557.513 468.92C547.882 470.355 536.87 467.743 526.646 456.672L526.605 456.628L526.567 456.581C523.405 452.713 516.005 441.168 510.744 424.963C507.522 415.036 504.798 408.216 502.928 403.475C502 401.122 501.253 399.208 500.775 397.69C500.344 396.321 500.02 394.956 500.168 393.741V393.507L497.394 391.84C495.546 393.399 492.966 395.348 490.159 397.026C486.803 399.034 482.786 400.869 479.216 400.869C475.356 400.869 470.855 400.484 466.717 399.643C462.645 398.815 458.653 397.492 456.032 395.452L456.025 395.446L449.584 390.38H391.091C388.474 392.417 384.446 395.171 380.153 397.355C377.847 398.529 375.418 399.562 373.06 400.224C370.77 400.866 368.418 401.193 366.256 400.861C363.894 400.766 360.205 400.377 356.563 399.503C352.979 398.643 349.045 397.225 346.627 394.843L343.33 391.909C342.3 392.625 341.613 393.147 341.172 393.509C340.989 393.659 340.861 393.773 340.775 393.853L320.921 447.518L320.827 447.77L320.67 447.989C318.275 451.329 314.092 456.385 309.264 460.778C304.52 465.095 298.799 469.106 293.347 469.788C286.96 470.587 275.556 469.403 266.075 462.284C256.467 455.07 249.171 442.018 250.682 419.794C250.524 403.339 253.374 375.669 253.699 373.585C255.953 359.129 259.829 339.23 263.578 322.444C265.453 314.052 267.3 306.413 268.903 300.61C269.704 297.712 270.452 295.244 271.117 293.358C271.45 292.417 271.77 291.592 272.078 290.92C272.319 290.393 272.601 289.847 272.934 289.401C275.439 284.308 279.249 276.864 282.65 270.845C284.366 267.808 286.01 265.079 287.347 263.191C288.001 262.268 288.655 261.438 289.263 260.878C289.547 260.616 289.976 260.266 290.514 260.068C290.857 259.943 291.323 259.864 291.81 259.95L293.094 259.767V255.823L294.13 255.254ZM337.004 257.833C319.917 250.851 303.909 254.921 297.094 258.226V263.235L295.377 263.481L291.885 263.98L291.804 263.991C291.52 264.291 291.119 264.785 290.61 265.503C289.396 267.217 287.835 269.801 286.133 272.812C282.741 278.814 278.918 286.295 276.432 291.355L276.316 291.592L276.143 291.79C276.136 291.799 276.093 291.854 276.02 291.981C275.936 292.126 275.835 292.325 275.716 292.585C275.477 293.107 275.2 293.808 274.889 294.689C274.268 296.449 273.55 298.817 272.76 301.676C271.182 307.388 269.349 314.954 267.482 323.315C263.746 340.039 259.889 359.851 257.651 374.201C257.354 376.11 254.517 403.639 254.682 419.829V419.908L254.677 419.986C253.218 441.17 260.135 452.822 268.478 459.086C276.959 465.454 287.261 466.518 292.85 465.818C296.978 465.302 301.901 462.069 306.571 457.819C311.054 453.74 314.977 449.027 317.264 445.871L337.109 392.234C337.14 392.138 337.169 392.063 337.192 392.014C337.263 391.854 337.343 391.728 337.4 391.645C337.514 391.479 337.641 391.334 337.748 391.221C337.969 390.987 338.264 390.721 338.632 390.418C339.377 389.806 340.561 388.932 342.385 387.715L343.67 386.857L344.824 387.885L349.316 391.881L349.359 391.92L349.4 391.961C350.979 393.541 353.997 394.773 357.496 395.613C360.478 396.329 363.518 396.694 365.661 396.827L366.522 396.871L366.65 396.876L366.776 396.896C368.17 397.129 369.933 396.946 371.98 396.372C374.006 395.804 376.18 394.889 378.339 393.79C382.661 391.59 386.739 388.748 389.149 386.818L389.696 386.38H450.968L451.512 386.808L458.489 392.296C460.36 393.752 463.602 394.928 467.514 395.724C471.36 396.506 475.592 396.869 479.216 396.869C481.634 396.869 484.852 395.54 488.107 393.594C491.283 391.694 494.172 389.404 495.836 387.896L496.937 386.899L498.208 387.664L503.198 390.661L504.168 391.244V394.04L504.142 394.203C504.103 394.439 504.141 395.062 504.591 396.489C505.018 397.844 505.705 399.615 506.649 402.007C508.521 406.756 511.285 413.674 514.549 423.728C519.645 439.426 526.778 450.498 529.629 454.006C538.951 464.073 548.629 466.199 556.923 464.964C565.369 463.706 572.581 458.923 576.598 454.901L576.692 454.806L576.8 454.724C578.49 453.434 580.023 451.136 581.342 447.989C582.646 444.878 583.661 441.132 584.432 437.175C585.973 429.262 586.491 420.752 586.491 415.353C586.491 405.516 583.682 377.328 581.027 360.722L581.024 360.7L581.021 360.678C579.285 348.016 576.304 332.599 572.889 318.673C569.472 304.741 565.666 292.504 562.304 285.975L547.976 263.501H543.579V258.697C536.46 254.996 528.272 253.965 520.736 254.27C513.639 254.558 507.266 256.026 503.171 257.415V262.502H498.508L497.097 263.914L496.511 264.5H472.253L472.734 316.93L472.735 317.227L472.652 317.512C470.407 325.154 464.535 327.99 461.536 328.419L461.401 328.437L461.266 328.438C448.789 328.522 429.775 328.622 413.279 328.651C396.866 328.68 382.761 328.641 380.253 328.432C377.171 328.174 374.586 326.337 372.713 324.452C370.812 322.54 369.397 320.335 368.65 318.841L368.44 318.419V264.5H344.661L344.075 263.914L342.665 262.502H337.004V257.833ZM367.015 344.429C378.878 344.723 388.403 354.224 388.403 365.901L388.396 366.456C388.095 378.062 378.384 387.38 366.448 387.381L365.882 387.374C354.207 387.085 344.796 377.878 344.5 366.456L344.493 365.901C344.493 354.039 354.323 344.422 366.448 344.422L367.015 344.429ZM474.793 344.429C486.656 344.723 496.182 354.224 496.182 365.901L496.174 366.456C495.873 378.062 486.162 387.38 474.227 387.381L473.66 387.374C461.985 387.085 452.574 377.878 452.278 366.456L452.272 365.901C452.272 354.039 462.101 344.422 474.227 344.422L474.793 344.429ZM366.448 348.422C356.449 348.422 348.493 356.33 348.493 365.901C348.493 375.473 356.449 383.381 366.448 383.381C376.447 383.38 384.403 375.473 384.403 365.901C384.403 356.33 376.447 348.422 366.448 348.422ZM474.227 348.422C464.227 348.422 456.272 356.33 456.272 365.901C456.272 375.473 464.227 383.381 474.227 383.381C484.226 383.38 492.182 375.473 492.182 365.901C492.182 356.33 484.226 348.422 474.227 348.422ZM526.957 323.946C532.494 324.227 536.897 328.81 536.897 334.423L536.883 334.962C536.602 340.504 532.024 344.912 526.418 344.912L525.879 344.898C520.521 344.626 516.225 340.326 515.953 334.962L515.94 334.423C515.94 328.63 520.631 323.933 526.418 323.933L526.957 323.946ZM316.574 317.446C317.035 317.446 317.377 317.604 317.479 317.652C317.626 317.722 317.744 317.798 317.817 317.848C317.967 317.949 318.104 318.062 318.209 318.153C318.429 318.344 318.685 318.59 318.948 318.854C319.483 319.392 320.164 320.12 320.883 320.906C322.325 322.485 323.985 324.373 325.072 325.63L325.56 326.193V339.751L325.457 340.059C325.324 340.459 325.077 341.017 324.722 341.56C324.384 342.075 323.814 342.785 322.958 343.213L322.535 343.425H306.621L306.198 343.213C305.343 342.785 304.773 342.074 304.436 341.56C304.08 341.017 303.833 340.459 303.699 340.059L303.597 339.751V327.187C303.544 326.82 303.597 326.521 303.621 326.404C303.689 326.079 303.818 325.814 303.896 325.667C304.064 325.346 304.299 325.013 304.52 324.721C304.98 324.111 305.633 323.354 306.332 322.578C307.744 321.012 309.492 319.211 310.669 318.032L311.255 317.446H316.574ZM526.418 327.933C522.844 327.933 519.94 330.835 519.94 334.423C519.94 338.011 522.845 340.912 526.418 340.912C529.992 340.912 532.896 338.011 532.897 334.423C532.897 330.834 529.992 327.933 526.418 327.933ZM312.918 321.446C311.823 322.557 310.439 323.995 309.303 325.256C308.623 326.011 308.064 326.665 307.71 327.133C307.667 327.19 307.63 327.243 307.597 327.29V339.037C307.645 339.137 307.707 339.254 307.781 339.367C307.795 339.388 307.809 339.406 307.822 339.425H321.334C321.347 339.406 321.363 339.388 321.376 339.367C321.45 339.254 321.512 339.139 321.56 339.039V327.687C320.515 326.488 319.14 324.929 317.93 323.604C317.222 322.83 316.587 322.152 316.112 321.676C316.026 321.589 315.948 321.513 315.879 321.446H312.918ZM300.832 302.96C301.199 302.907 301.499 302.96 301.616 302.984C301.942 303.053 302.207 303.182 302.355 303.26C302.675 303.429 303.008 303.662 303.3 303.884C303.909 304.345 304.665 304.999 305.441 305.699C307.005 307.113 308.804 308.861 309.982 310.04L310.567 310.626V315.949C310.566 316.409 310.408 316.751 310.36 316.853C310.291 317 310.216 317.118 310.166 317.191C310.065 317.341 309.952 317.478 309.86 317.584C309.67 317.804 309.424 318.06 309.159 318.323C308.622 318.859 307.896 319.541 307.11 320.26C305.534 321.704 303.648 323.364 302.393 324.453L301.828 324.943H288.282L287.975 324.84C287.574 324.706 287.016 324.459 286.474 324.103C285.959 323.764 285.25 323.193 284.822 322.338L284.611 321.916V305.987L284.822 305.565C285.25 304.71 285.959 304.139 286.474 303.801C287.016 303.445 287.574 303.197 287.975 303.063L288.282 302.96H300.832ZM341.134 302.563C341.534 302.697 342.093 302.945 342.635 303.301C343.15 303.639 343.859 304.21 344.286 305.065L344.497 305.487V321.416L344.286 321.838C343.859 322.693 343.15 323.264 342.635 323.603C342.093 323.959 341.534 324.206 341.134 324.34L340.826 324.443H328.276C327.909 324.496 327.61 324.443 327.492 324.419C327.166 324.351 326.901 324.221 326.754 324.144C326.433 323.975 326.101 323.741 325.809 323.52C325.2 323.058 324.444 322.405 323.668 321.704C322.103 320.291 320.305 318.542 319.127 317.363L318.542 316.777V311.454C318.542 310.994 318.7 310.652 318.748 310.551C318.818 310.403 318.893 310.285 318.942 310.212C319.044 310.062 319.157 309.925 319.248 309.819C319.438 309.599 319.685 309.344 319.949 309.08C320.487 308.544 321.213 307.863 321.998 307.144C323.575 305.7 325.461 304.039 326.716 302.95L327.28 302.46H340.826L341.134 302.563ZM466.745 316.728L466.669 316.997C465.612 320.701 462.349 322.426 460.805 322.867L460.535 322.944H379.92C378.956 322.944 378.17 322.449 377.718 322.114C377.2 321.73 376.714 321.245 376.296 320.778C375.455 319.838 374.689 318.74 374.232 318.007L373.928 317.521V260.5H466.745V316.728ZM288.997 306.96C288.898 307.008 288.782 307.07 288.67 307.144C288.65 307.157 288.63 307.172 288.611 307.185V320.717C288.63 320.73 288.649 320.745 288.67 320.759C288.783 320.833 288.897 320.895 288.997 320.943H300.331C301.529 319.897 303.086 318.521 304.409 317.31C305.183 316.601 305.86 315.965 306.336 315.49C306.423 315.403 306.499 315.323 306.567 315.254V312.288C305.457 311.191 304.02 309.805 302.76 308.667C302.006 307.986 301.352 307.427 300.884 307.072C300.828 307.03 300.775 306.993 300.729 306.96H288.997ZM503.007 299.969C508.543 300.25 512.946 304.833 512.946 310.445L512.933 310.984C512.652 316.527 508.074 320.934 502.468 320.935L501.929 320.921C496.571 320.649 492.274 316.348 492.003 310.984L491.989 310.445C491.989 304.652 496.681 299.955 502.468 299.955L503.007 299.969ZM551.906 299.969C557.443 300.25 561.846 304.833 561.846 310.445L561.832 310.984C561.552 316.527 556.974 320.934 551.367 320.935L550.828 320.921C545.47 320.649 541.174 316.348 540.902 310.984L540.889 310.445C540.889 304.652 545.58 299.955 551.367 299.955L551.906 299.969ZM328.777 306.46C327.579 307.506 326.023 308.882 324.699 310.094C323.926 310.802 323.249 311.438 322.773 311.913C322.685 312 322.609 312.08 322.542 312.149V315.115C323.652 316.212 325.089 317.598 326.349 318.736C327.103 319.418 327.757 319.977 328.225 320.331C328.281 320.374 328.334 320.41 328.38 320.443H340.111C340.211 320.395 340.326 320.334 340.439 320.26C340.459 320.246 340.479 320.232 340.497 320.219V306.686C340.478 306.673 340.459 306.658 340.439 306.645C340.326 306.571 340.211 306.508 340.111 306.46H328.777ZM377.928 316.353C378.296 316.9 378.782 317.558 379.277 318.112C379.604 318.477 379.885 318.742 380.098 318.899C380.122 318.918 380.146 318.931 380.165 318.944H459.929C460.749 318.63 462.186 317.718 462.745 316.137V264.5H377.928V316.353ZM502.468 303.955C498.894 303.955 495.989 306.857 495.989 310.445C495.99 314.034 498.894 316.935 502.468 316.935C506.041 316.934 508.946 314.033 508.946 310.445C508.946 306.857 506.042 303.955 502.468 303.955ZM551.367 303.955C547.794 303.955 544.889 306.857 544.889 310.445C544.889 314.034 547.794 316.935 551.367 316.935C554.941 316.934 557.846 314.034 557.846 310.445C557.846 306.857 554.941 303.955 551.367 303.955ZM322.935 284.689C323.79 285.118 324.36 285.828 324.697 286.343C325.053 286.885 325.3 287.443 325.434 287.844L325.536 288.151V300.715C325.589 301.082 325.536 301.382 325.512 301.498C325.444 301.824 325.315 302.088 325.237 302.235C325.069 302.556 324.835 302.889 324.613 303.182C324.153 303.791 323.501 304.548 322.801 305.324C321.389 306.891 319.641 308.691 318.464 309.87L317.878 310.456H312.559C312.098 310.456 311.756 310.298 311.654 310.25C311.507 310.18 311.389 310.104 311.316 310.055C311.166 309.953 311.029 309.84 310.924 309.749C310.704 309.559 310.448 309.313 310.185 309.048C309.65 308.51 308.969 307.783 308.25 306.996C306.808 305.417 305.148 303.529 304.061 302.272L303.573 301.709V288.151L303.676 287.844C303.809 287.443 304.056 286.885 304.411 286.343C304.749 285.828 305.319 285.118 306.175 284.689L306.598 284.478H322.512L322.935 284.689ZM307.757 288.535C307.683 288.648 307.621 288.763 307.573 288.863V300.215C308.618 301.414 309.993 302.973 311.203 304.298C311.911 305.072 312.546 305.75 313.021 306.227C313.107 306.313 313.185 306.389 313.254 306.456H316.215C317.31 305.345 318.694 303.907 319.83 302.646C320.511 301.891 321.069 301.238 321.423 300.77C321.466 300.713 321.503 300.659 321.536 300.612V288.865C321.488 288.765 321.426 288.649 321.352 288.535C321.338 288.515 321.324 288.496 321.311 288.478H307.799C307.786 288.496 307.77 288.514 307.757 288.535ZM526.957 276.991C532.494 277.272 536.897 281.855 536.897 287.468L536.883 288.007C536.602 293.549 532.024 297.957 526.418 297.957L525.879 297.943C520.521 297.671 516.225 293.371 515.953 288.007L515.94 287.468C515.94 281.674 520.631 276.978 526.418 276.978L526.957 276.991ZM526.418 280.978C522.844 280.978 519.94 283.879 519.94 287.468C519.94 291.056 522.845 293.957 526.418 293.957C529.992 293.957 532.896 291.056 532.897 287.468C532.897 283.879 529.992 280.978 526.418 280.978Z" fill="#FF8200"/>
</g>
<defs>
<filter id="filter0_dddddd_12_3721" x="0.483032" y="0.000385284" width="840.008" height="720.004" filterUnits="userSpaceOnUse" color-interpolation-filters="sRGB">
<feFlood flood-opacity="0" result="BackgroundImageFix"/>
<feColorMatrix in="SourceAlpha" type="matrix" values="0 0 0 0 0 0 0 0 0 0 0 0 0 0 0 0 0 0 127 0" result="hardAlpha"/>
<feOffset/>
<feGaussianBlur stdDeviation="10.2002"/>
<feColorMatrix type="matrix" values="0 0 0 0 1 0 0 0 0 0.509804 0 0 0 0 0 0 0 0 1 0"/>
<feBlend mode="normal" in2="BackgroundImageFix" result="effect1_dropShadow_12_3721"/>
<feColorMatrix in="SourceAlpha" type="matrix" values="0 0 0 0 0 0 0 0 0 0 0 0 0 0 0 0 0 0 127 0" result="hardAlpha"/>
<feOffset/>
<feGaussianBlur stdDeviation="20.4005"/>
<feColorMatrix type="matrix" values="0 0 0 0 1 0 0 0 0 0.509804 0 0 0 0 0 0 0 0 1 0"/>
<feBlend mode="normal" in2="effect1_dropShadow_12_3721" result="effect2_dropShadow_12_3721"/>
<feColorMatrix in="SourceAlpha" type="matrix" values="0 0 0 0 0 0 0 0 0 0 0 0 0 0 0 0 0 0 127 0" result="hardAlpha"/>
<feOffset/>
<feGaussianBlur stdDeviation="71.4017"/>
<feColorMatrix type="matrix" values="0 0 0 0 1 0 0 0 0 0.509804 0 0 0 0 0 0 0 0 1 0"/>
<feBlend mode="normal" in2="effect2_dropShadow_12_3721" result="effect3_dropShadow_12_3721"/>
<feColorMatrix in="SourceAlpha" type="matrix" values="0 0 0 0 0 0 0 0 0 0 0 0 0 0 0 0 0 0 127 0" result="hardAlpha"/>
<feOffset/>
<feGaussianBlur stdDeviation="125"/>
<feColorMatrix type="matrix" values="0 0 0 0 1 0 0 0 0 0.509804 0 0 0 0 0 0 0 0 1 0"/>
<feBlend mode="normal" in2="effect3_dropShadow_12_3721" result="effect4_dropShadow_12_3721"/>
<feColorMatrix in="SourceAlpha" type="matrix" values="0 0 0 0 0 0 0 0 0 0 0 0 0 0 0 0 0 0 127 0" result="hardAlpha"/>
<feOffset/>
<feGaussianBlur stdDeviation="125"/>
<feColorMatrix type="matrix" values="0 0 0 0 1 0 0 0 0 0.509804 0 0 0 0 0 0 0 0 1 0"/>
<feBlend mode="normal" in2="effect4_dropShadow_12_3721" result="effect5_dropShadow_12_3721"/>
<feColorMatrix in="SourceAlpha" type="matrix" values="0 0 0 0 0 0 0 0 0 0 0 0 0 0 0 0 0 0 127 0" result="hardAlpha"/>
<feOffset/>
<feGaussianBlur stdDeviation="125"/>
<feColorMatrix type="matrix" values="0 0 0 0 1 0 0 0 0 0.509804 0 0 0 0 0 0 0 0 1 0"/>
<feBlend mode="normal" in2="effect5_dropShadow_12_3721" result="effect6_dropShadow_12_3721"/>
<feBlend mode="normal" in="SourceGraphic" in2="effect6_dropShadow_12_3721" result="shape"/>
</filter>
</defs>
</svg>
