<svg width="847" height="944" viewBox="0 0 847 944" fill="none" xmlns="http://www.w3.org/2000/svg">
<g filter="url(#filter0_dddddd_12_3733)">
<path d="M424.982 320C492.085 320 546.482 370.144 546.482 432C546.482 450.09 541.827 467.177 533.564 482.302C533.472 482.478 533.374 482.658 533.27 482.843C533.241 482.895 533.213 482.948 533.184 483H533.181C532.197 484.704 530.719 486.742 528.938 489.031C526.715 491.887 523.901 495.285 520.736 499.127C514.39 506.832 506.553 516.421 498.849 527.466C483.427 549.575 468.703 577.284 467.484 607H476.482V652C476.482 654.845 475.59 659.036 472.855 662.512C470.092 666.022 465.589 668.619 458.803 668.506C457.105 668.569 454.959 668.628 452.482 668.683V680C452.482 687.732 446.214 694 438.482 694H412.482C404.871 694 398.679 687.926 398.487 680.361L398.482 680V668.753C396.089 668.685 394.037 668.602 392.44 668.501C385.499 668.69 380.91 666.07 378.11 662.512C375.375 659.036 374.482 654.845 374.482 652V607H382.934C381.431 577.663 366.865 550.327 351.616 528.466C343.912 517.421 336.075 507.832 329.729 500.127C326.564 496.285 323.75 492.887 321.527 490.031C319.332 487.21 317.597 484.77 316.681 482.867L316.702 482.856C308.25 467.595 303.482 450.311 303.482 432C303.482 370.144 357.88 320 424.982 320ZM448.482 668.762C435.15 668.997 415.558 669.093 402.482 668.845V680L402.495 680.515C402.763 685.798 407.132 690 412.482 690H438.482C444.005 690 448.482 685.523 448.482 680V668.762ZM378.482 622.5H396.982V626.5H378.482V644H434.982V648H378.482V652C378.482 654.155 379.189 657.414 381.254 660.038C383.24 662.562 386.62 664.682 392.42 664.501L392.516 664.498L392.611 664.504C404.795 665.29 445.181 665.005 458.544 664.514L458.545 664.501C458.626 664.504 458.707 664.503 458.787 664.505C458.827 664.503 458.866 664.503 458.905 664.502V664.508C464.486 664.592 467.766 662.509 469.711 660.038C471.776 657.414 472.482 654.155 472.482 652V648H451.482V644H472.482V626.5H414.482V622.5H472.482V611H378.482V622.5ZM424.982 324C359.776 324 307.482 372.654 307.482 432C307.482 450.406 312.515 467.783 321.4 483H321.362C322.168 484.247 323.28 485.769 324.685 487.574C326.864 490.375 329.632 493.717 332.816 497.583C339.167 505.293 347.093 514.99 354.896 526.178C370.322 548.291 385.433 576.458 386.937 607H465.482L463.484 606.92C464.726 576.024 479.988 547.513 495.568 525.178C503.372 513.99 511.298 504.293 517.648 496.583C520.833 492.717 523.601 489.375 525.78 486.574C527.412 484.477 528.648 482.762 529.469 481.416C537.79 466.582 542.482 449.771 542.482 432C542.482 372.654 490.189 324 424.982 324ZM388.597 350.114C391.076 348.899 394.07 349.924 395.286 352.402C396.502 354.882 395.477 357.878 392.998 359.094C363.999 373.312 350.354 392.689 344.766 410.841C339.115 429.192 341.586 446.68 345.48 456.952C346.459 459.534 345.159 462.421 342.577 463.399C339.995 464.378 337.109 463.079 336.13 460.497C331.541 448.392 328.83 428.615 335.208 407.898C341.648 386.983 357.241 365.488 388.597 350.114ZM250.225 359.195C250.733 358.215 251.94 357.833 252.921 358.341L296.864 381.128C297.845 381.636 298.227 382.844 297.719 383.824C297.21 384.804 296.003 385.187 295.022 384.679L251.08 361.892C250.1 361.383 249.716 360.176 250.225 359.195ZM593.71 358.341C594.69 357.833 595.898 358.215 596.406 359.195C596.915 360.176 596.531 361.383 595.551 361.892L551.608 384.679C550.628 385.187 549.421 384.804 548.912 383.824C548.404 382.844 548.786 381.636 549.767 381.128L593.71 358.341ZM278.068 316.025C278.85 315.245 280.116 315.246 280.896 316.027L315.88 351.049C316.66 351.83 316.659 353.096 315.878 353.877C315.096 354.657 313.83 354.656 313.05 353.875L278.067 318.854C277.287 318.073 277.287 316.806 278.068 316.025ZM565.734 316.027C566.515 315.246 567.781 315.245 568.563 316.025C569.344 316.806 569.344 318.073 568.563 318.854L533.581 353.875C532.8 354.656 531.534 354.657 530.753 353.877C529.972 353.097 529.971 351.83 530.751 351.049L565.734 316.027ZM319.734 283.307C320.669 282.719 321.904 283.001 322.492 283.936L348.842 325.84C349.43 326.775 349.148 328.01 348.213 328.598C347.278 329.185 346.043 328.904 345.455 327.969L319.106 286.064C318.519 285.13 318.8 283.895 319.734 283.307ZM524.139 283.936C524.727 283.001 525.961 282.719 526.896 283.307C527.831 283.895 528.112 285.129 527.524 286.064L501.176 327.969C500.588 328.904 499.353 329.185 498.418 328.598C497.483 328.01 497.201 326.775 497.789 325.84L524.139 283.936ZM368.109 258.941C369.175 258.651 370.275 259.279 370.565 260.345L383.59 308.101C383.88 309.166 383.252 310.265 382.187 310.556C381.121 310.846 380.022 310.218 379.731 309.152L366.706 261.397C366.416 260.332 367.044 259.232 368.109 258.941ZM476.065 260.345C476.356 259.279 477.456 258.651 478.521 258.941C479.587 259.232 480.215 260.332 479.925 261.397L466.899 309.152C466.609 310.218 465.51 310.846 464.444 310.556C463.379 310.265 462.751 309.166 463.041 308.101L476.065 260.345ZM423.482 250C424.587 250 425.482 250.895 425.482 252V301.5C425.482 302.605 424.587 303.5 423.482 303.5C423.426 303.5 423.37 303.496 423.315 303.491C423.26 303.496 423.205 303.5 423.148 303.5C422.044 303.5 421.148 302.604 421.148 301.5V252C421.148 250.896 422.044 250 423.148 250C423.205 250 423.26 250.003 423.315 250.008C423.37 250.003 423.426 250 423.482 250Z" fill="#007DFF"/>
</g>
<defs>
<filter id="filter0_dddddd_12_3733" x="0" y="0" width="846.631" height="944" filterUnits="userSpaceOnUse" color-interpolation-filters="sRGB">
<feFlood flood-opacity="0" result="BackgroundImageFix"/>
<feColorMatrix in="SourceAlpha" type="matrix" values="0 0 0 0 0 0 0 0 0 0 0 0 0 0 0 0 0 0 127 0" result="hardAlpha"/>
<feOffset/>
<feGaussianBlur stdDeviation="13.32"/>
<feColorMatrix type="matrix" values="0 0 0 0 0 0 0 0 0 0.490196 0 0 0 0 1 0 0 0 1 0"/>
<feBlend mode="normal" in2="BackgroundImageFix" result="effect1_dropShadow_12_3733"/>
<feColorMatrix in="SourceAlpha" type="matrix" values="0 0 0 0 0 0 0 0 0 0 0 0 0 0 0 0 0 0 127 0" result="hardAlpha"/>
<feOffset/>
<feGaussianBlur stdDeviation="26.64"/>
<feColorMatrix type="matrix" values="0 0 0 0 0 0 0 0 0 0.490196 0 0 0 0 1 0 0 0 1 0"/>
<feBlend mode="normal" in2="effect1_dropShadow_12_3733" result="effect2_dropShadow_12_3733"/>
<feColorMatrix in="SourceAlpha" type="matrix" values="0 0 0 0 0 0 0 0 0 0 0 0 0 0 0 0 0 0 127 0" result="hardAlpha"/>
<feOffset/>
<feGaussianBlur stdDeviation="93.24"/>
<feColorMatrix type="matrix" values="0 0 0 0 0 0 0 0 0 0.490196 0 0 0 0 1 0 0 0 1 0"/>
<feBlend mode="normal" in2="effect2_dropShadow_12_3733" result="effect3_dropShadow_12_3733"/>
<feColorMatrix in="SourceAlpha" type="matrix" values="0 0 0 0 0 0 0 0 0 0 0 0 0 0 0 0 0 0 127 0" result="hardAlpha"/>
<feOffset/>
<feGaussianBlur stdDeviation="125"/>
<feColorMatrix type="matrix" values="0 0 0 0 0 0 0 0 0 0.490196 0 0 0 0 1 0 0 0 1 0"/>
<feBlend mode="normal" in2="effect3_dropShadow_12_3733" result="effect4_dropShadow_12_3733"/>
<feColorMatrix in="SourceAlpha" type="matrix" values="0 0 0 0 0 0 0 0 0 0 0 0 0 0 0 0 0 0 127 0" result="hardAlpha"/>
<feOffset/>
<feGaussianBlur stdDeviation="125"/>
<feColorMatrix type="matrix" values="0 0 0 0 0 0 0 0 0 0.490196 0 0 0 0 1 0 0 0 1 0"/>
<feBlend mode="normal" in2="effect4_dropShadow_12_3733" result="effect5_dropShadow_12_3733"/>
<feColorMatrix in="SourceAlpha" type="matrix" values="0 0 0 0 0 0 0 0 0 0 0 0 0 0 0 0 0 0 127 0" result="hardAlpha"/>
<feOffset/>
<feGaussianBlur stdDeviation="125"/>
<feColorMatrix type="matrix" values="0 0 0 0 0 0 0 0 0 0.490196 0 0 0 0 1 0 0 0 1 0"/>
<feBlend mode="normal" in2="effect5_dropShadow_12_3733" result="effect6_dropShadow_12_3733"/>
<feBlend mode="normal" in="SourceGraphic" in2="effect6_dropShadow_12_3733" result="shape"/>
</filter>
</defs>
</svg>
