<svg width="340" height="220" viewBox="0 0 340 220" fill="none" xmlns="http://www.w3.org/2000/svg">
<path d="M43.647 5.25351C50.7168 1.36091 69.4723 -4.02101 89.3237 4.67343L90.521 5.19785V8.50156H93.8403L94.4263 9.08847L95.8364 10.4996H121.957V67.4537C122.59 68.6167 123.677 70.2332 125.067 71.6314C126.653 73.2269 128.394 74.3034 130.102 74.4459C132.386 74.6364 146.222 74.6802 162.79 74.651C179.203 74.622 198.115 74.5221 210.589 74.4391C212.295 74.145 216.485 72.2675 218.248 66.65L217.751 12.5182L217.733 10.4996H244.37L245.78 9.08847L246.366 8.50156H248.688V4.62754L249.976 4.13633C254.328 2.48094 261.75 0.611992 270.091 0.27402C278.427 -0.0637239 287.861 1.12186 296.08 5.76328L297.096 6.3375V9.50058H299.686L300.276 10.4254L315.245 33.9029L315.292 33.9791L315.334 34.0582C318.948 41.0351 322.86 53.7335 326.291 67.7203C329.732 81.751 332.737 97.2851 334.495 110.09L334.745 111.689C337.337 128.544 340.008 155.527 340.008 165.353C340.008 170.944 339.477 179.717 337.875 187.939C337.075 192.05 335.994 196.084 334.547 199.535C333.14 202.893 331.304 205.892 328.865 207.805C324.385 212.259 316.466 217.514 307.03 218.92C297.399 220.354 286.387 217.742 276.163 206.671L276.122 206.628L276.083 206.581C272.922 202.713 265.522 191.167 260.261 174.962C257.039 165.036 254.315 158.216 252.445 153.474C251.517 151.121 250.77 149.207 250.292 147.69C249.861 146.32 249.537 144.956 249.685 143.741V143.506L246.911 141.839C245.062 143.399 242.483 145.347 239.676 147.026C236.319 149.034 232.303 150.869 228.733 150.869C224.873 150.869 220.372 150.484 216.234 149.642C212.162 148.814 208.17 147.492 205.549 145.452L205.541 145.446L199.101 140.379H140.608C137.991 142.416 133.963 145.171 129.67 147.355C127.364 148.529 124.935 149.562 122.577 150.223C120.287 150.866 117.935 151.192 115.773 150.861C113.411 150.765 109.722 150.377 106.08 149.503C102.496 148.642 98.562 147.225 96.144 144.842L92.8472 141.909C91.817 142.625 91.1296 143.146 90.689 143.508C90.506 143.659 90.378 143.773 90.2915 143.853L70.438 197.517L70.3442 197.77L70.187 197.989C67.7918 201.329 63.609 206.384 58.7808 210.778C54.0367 215.095 48.3158 219.105 42.8638 219.788C36.477 220.587 25.0733 219.402 15.5923 212.284C5.98371 205.069 -1.3122 192.018 0.198719 169.794C0.0406079 153.339 2.89136 125.669 3.2163 123.585C5.46992 109.129 9.346 89.2296 13.0952 72.4439C14.9698 64.0513 16.8174 56.4127 18.4204 50.61C19.221 47.7119 19.9688 45.2439 20.6343 43.358C20.9665 42.4165 21.2874 41.592 21.5952 40.9195C21.8362 40.393 22.1183 39.8467 22.4507 39.401C24.9563 34.308 28.7658 26.8639 32.1675 20.8443C33.8834 17.8078 35.527 15.0784 36.8638 13.191C37.5178 12.2675 38.1722 11.4376 38.7798 10.8775C39.0644 10.6152 39.4934 10.2652 40.0308 10.068C40.3735 9.94218 40.8395 9.86322 41.3266 9.9498L42.6108 9.76621V5.82285L43.647 5.25351ZM86.521 7.83261C69.4337 0.85057 53.4257 4.92083 46.6108 8.22519V13.235L44.894 13.4811L41.4018 13.9801L41.3208 13.9908C41.0366 14.2907 40.6362 14.7842 40.1274 15.5025C38.9133 17.2168 37.3516 19.8008 35.6499 22.8121C32.2581 28.8141 28.4347 36.2947 25.9487 41.3551L25.8325 41.5914L25.6597 41.7896C25.6528 41.7987 25.6102 41.8535 25.5366 41.9811C25.4534 42.1253 25.3521 42.3242 25.2329 42.5846C24.994 43.1067 24.7167 43.8079 24.4058 44.6891C23.7848 46.4487 23.0667 48.8162 22.2768 51.6754C20.6989 57.3875 18.8662 64.9532 16.9985 73.315C13.2632 90.0385 9.40559 109.851 7.16845 124.201C6.87088 126.109 4.0337 153.639 4.19872 169.829V169.908L4.19384 169.986C2.73449 191.17 9.6522 202.822 17.9946 209.086C26.4763 215.454 36.778 216.517 42.3667 215.818C46.4949 215.301 51.4185 212.069 56.0884 207.819C60.5713 203.739 64.494 199.026 66.7808 195.871L86.6255 142.234C86.6566 142.138 86.6863 142.062 86.7085 142.013C86.7802 141.854 86.8597 141.728 86.9165 141.645C87.0306 141.478 87.1581 141.333 87.2651 141.22C87.4859 140.987 87.7807 140.72 88.1489 140.418C88.894 139.805 90.0778 138.932 91.9018 137.714L93.187 136.857L94.3413 137.884L98.8325 141.88L98.8755 141.92L98.9175 141.961C100.496 143.541 103.514 144.773 107.013 145.613C109.995 146.328 113.035 146.694 115.178 146.827L116.039 146.871L116.167 146.876L116.293 146.896C117.687 147.129 119.45 146.946 121.497 146.372C123.522 145.803 125.697 144.888 127.856 143.79C132.178 141.59 136.256 138.748 138.666 136.818L139.213 136.379H200.485L201.029 136.807L208.006 142.296C209.877 143.752 213.119 144.928 217.031 145.723C220.877 146.505 225.109 146.869 228.733 146.869C231.151 146.869 234.369 145.54 237.624 143.593C240.8 141.693 243.689 139.403 245.353 137.896L246.454 136.899L247.725 137.664L252.715 140.661L253.685 141.244V144.04L253.659 144.203C253.62 144.438 253.658 145.061 254.108 146.489C254.534 147.844 255.222 149.614 256.166 152.006C258.038 156.755 260.802 163.674 264.066 173.727C269.162 189.426 276.295 200.498 279.146 204.005C288.468 214.073 298.146 216.199 306.44 214.963C314.886 213.705 322.098 208.922 326.115 204.901L326.209 204.805L326.317 204.723C328.007 203.434 329.54 201.135 330.859 197.989C332.163 194.878 333.178 191.131 333.949 187.174C335.49 179.262 336.008 170.752 336.008 165.353C336.008 155.516 333.199 127.328 330.544 110.721L330.541 110.7L330.538 110.677C328.802 98.0156 325.821 82.5987 322.406 68.6725C318.989 54.7404 315.183 42.5035 311.821 35.9742L297.493 13.5006H293.096V8.69687C285.977 4.99574 277.789 3.96479 270.253 4.27011C263.156 4.55767 256.783 6.02549 252.688 7.41465V12.5016H248.025L246.614 13.9137L246.028 14.4996H221.77L222.25 66.9293L222.252 67.2262L222.169 67.5113C219.924 75.1532 214.052 77.9895 211.053 78.4186L210.918 78.4371L210.783 78.4381C198.306 78.5213 179.292 78.6218 162.796 78.651C146.383 78.68 132.278 78.6403 129.77 78.4312C126.688 78.1741 124.103 76.3362 122.23 74.4518C120.329 72.5395 118.914 70.3346 118.167 68.8404L117.957 68.4186V14.4996H94.1782L93.5923 13.9137L92.1821 12.5016H86.521V7.83261ZM116.532 94.4283C128.395 94.7226 137.92 104.224 137.92 115.901L137.913 116.456C137.612 128.062 127.901 137.38 115.965 137.38L115.399 137.374C103.724 137.084 94.3132 127.878 94.0171 116.456L94.0102 115.901C94.0102 104.038 103.84 94.4215 115.965 94.4215L116.532 94.4283ZM224.31 94.4283C236.173 94.7225 245.699 104.224 245.699 115.901L245.691 116.456C245.39 128.062 235.679 137.38 223.744 137.38L223.177 137.374C211.502 137.084 202.092 127.878 201.795 116.456L201.789 115.901C201.789 104.038 211.618 94.4215 223.744 94.4215L224.31 94.4283ZM115.965 98.4215C105.966 98.4215 98.0102 106.329 98.0102 115.901C98.0104 125.472 105.966 133.38 115.965 133.38C125.964 133.38 133.92 125.472 133.92 115.901C133.92 106.33 125.964 98.4218 115.965 98.4215ZM223.744 98.4215C213.744 98.4215 205.789 106.329 205.789 115.901C205.789 125.472 213.745 133.38 223.744 133.38C233.742 133.38 241.699 125.472 241.699 115.901C241.699 106.33 233.743 98.4218 223.744 98.4215ZM276.474 73.9449C282.011 74.2258 286.413 78.8092 286.414 84.4215L286.4 84.9605C286.119 90.5033 281.541 94.9107 275.935 94.9107L275.396 94.8971C270.038 94.6251 265.742 90.3245 265.47 84.9605L265.457 84.4215C265.457 78.6283 270.148 73.9315 275.935 73.9312L276.474 73.9449ZM66.0913 67.4459C66.5523 67.4459 66.8937 67.6038 66.9956 67.652C67.1431 67.7217 67.2611 67.7975 67.3345 67.8473C67.4837 67.9485 67.6206 68.0616 67.7261 68.1529C67.9459 68.3432 68.2019 68.5893 68.4653 68.8541C69.0004 69.3919 69.6813 70.1194 70.3999 70.9059C71.8424 72.4846 73.5016 74.373 74.5893 75.6295L75.0766 76.193V89.7506L74.9741 90.0582C74.8407 90.4586 74.5941 91.0168 74.2388 91.5592C73.9013 92.0741 73.3305 92.7843 72.4751 93.2125L72.0522 93.4244H56.1382L55.7153 93.2125C54.8602 92.7842 54.29 92.074 53.9526 91.5592C53.5971 91.0166 53.3496 90.4586 53.2163 90.0582L53.1138 89.7506V77.1871C53.0609 76.8201 53.1138 76.5205 53.1382 76.4039C53.2063 76.0786 53.3352 75.8139 53.4126 75.6666C53.5812 75.3458 53.8156 75.0127 54.0366 74.7203C54.4974 74.1107 55.1496 73.354 55.8491 72.5777C57.2609 71.0112 59.0085 69.2106 60.186 68.0318L60.772 67.4459H66.0913ZM275.935 77.9312C272.362 77.9315 269.457 80.8334 269.457 84.4215C269.457 88.0096 272.362 90.9105 275.935 90.9107C279.509 90.9107 282.413 88.0097 282.414 84.4215C282.413 80.8332 279.509 77.9313 275.935 77.9312ZM62.435 71.4459C61.3396 72.5567 59.9561 73.9946 58.8198 75.2555C58.1396 76.0103 57.581 76.6642 57.227 77.1324C57.1841 77.1893 57.1473 77.243 57.1138 77.2896V89.0367C57.162 89.1371 57.224 89.2533 57.2983 89.3668C57.3118 89.3873 57.3264 89.4059 57.3393 89.4244H70.8511C70.864 89.4059 70.8796 89.3873 70.8931 89.3668C70.9669 89.2541 71.0286 89.1385 71.0766 89.0387V77.6871C70.0318 76.4876 68.6573 74.929 67.4468 73.6041C66.7392 72.8297 66.1037 72.1521 65.6294 71.6754C65.5432 71.5887 65.4648 71.5127 65.396 71.4459H62.435ZM50.3491 52.9586C50.7161 52.9056 51.0159 52.9584 51.1333 52.983C51.459 53.0514 51.7243 53.1808 51.8716 53.2584C52.1922 53.4273 52.5248 53.6612 52.8169 53.8824C53.4259 54.3438 54.1819 54.9974 54.9575 55.6978C56.5223 57.1111 58.321 58.8599 59.4985 60.0387L60.0835 60.6246V65.9478C60.0835 66.4081 59.9254 66.7495 59.8774 66.8512C59.8078 66.9986 59.7327 67.1167 59.6831 67.19C59.5819 67.3396 59.4687 67.4769 59.3774 67.5826C59.1873 67.8026 58.9407 68.0582 58.6763 68.3219C58.139 68.8575 57.4129 69.5392 56.6274 70.2584C55.0505 71.7023 53.1648 73.3628 51.9097 74.4518L51.3452 74.942H37.7993L37.4917 74.8385C37.0913 74.7048 36.5328 74.4571 35.9907 74.1012C35.4759 73.763 34.7666 73.192 34.3393 72.3365L34.1284 71.9146V55.9859L34.3393 55.5641C34.7667 54.7085 35.4759 54.1375 35.9907 53.7994C36.5329 53.4434 37.0913 53.1957 37.4917 53.0621L37.7993 52.9586H50.3491ZM90.6509 52.5631C91.0513 52.6967 91.6097 52.9444 92.1518 53.3004C92.6666 53.6385 93.3759 54.2095 93.8032 55.065L94.0141 55.4869V71.4156L93.8032 71.8375C93.3758 72.693 92.6666 73.2641 92.1518 73.6021C91.6096 73.9582 91.0513 74.2058 90.6509 74.3395L90.3433 74.443H77.7934C77.4263 74.4959 77.1265 74.4431 77.0093 74.4186C76.6835 74.3502 76.4182 74.2207 76.271 74.1432C75.9504 73.9742 75.6178 73.7404 75.3257 73.5191C74.7166 73.0577 73.9607 72.4042 73.185 71.7037C71.6202 70.2904 69.8215 68.5417 68.644 67.3629L68.0591 66.777V61.4537C68.0591 60.9936 68.2171 60.6522 68.2651 60.5504C68.3347 60.403 68.4098 60.2849 68.4595 60.2115C68.5606 60.062 68.6739 59.9246 68.7651 59.8189C68.9552 59.5989 69.2018 59.3433 69.4663 59.0797C70.0035 58.5441 70.7297 57.8624 71.5151 57.1432C73.092 55.6993 74.9778 54.0388 76.2329 52.9498L76.7974 52.4596H90.3433L90.6509 52.5631ZM216.262 66.7281L216.186 66.9967C215.129 70.7005 211.866 72.4252 210.322 72.8668L210.052 72.9439H129.437C128.473 72.9439 127.687 72.449 127.235 72.1139C126.717 71.7301 126.231 71.2451 125.813 70.7779C124.972 69.8373 124.206 68.7394 123.749 68.0064L123.445 67.5211V10.4996H216.262V66.7281ZM38.5141 56.9586C38.4146 57.0066 38.2995 57.0684 38.187 57.1422C38.1664 57.1557 38.1469 57.1702 38.1284 57.1832V70.7154C38.1471 70.7286 38.1662 70.7438 38.187 70.7574C38.2995 70.8313 38.4145 70.8939 38.5141 70.942H49.8481C51.0463 69.896 52.6029 68.5199 53.9263 67.3082C54.6998 66.5999 55.3768 65.9637 55.853 65.4889C55.9405 65.4017 56.0162 65.322 56.0835 65.2525V62.2867C54.9736 61.1898 53.537 59.8037 52.2768 58.6656C51.5226 57.9845 50.8686 57.4252 50.4009 57.0709C50.3447 57.0283 50.2918 56.9919 50.2456 56.9586H38.5141ZM252.524 49.9684C258.06 50.2493 262.463 54.8326 262.463 60.4449L262.45 60.984C262.169 66.5267 257.591 70.9341 251.985 70.9342L251.446 70.9205C246.088 70.6487 241.791 66.348 241.52 60.984L241.506 60.4449C241.506 54.6515 246.198 49.9547 251.985 49.9547L252.524 49.9684ZM301.423 49.9684C306.96 50.2493 311.363 54.8325 311.363 60.4449L311.349 60.984C311.069 66.5267 306.491 70.9341 300.884 70.9342L300.345 70.9205C294.987 70.6487 290.691 66.348 290.419 60.984L290.406 60.4449C290.406 54.6515 295.097 49.9547 300.884 49.9547L301.423 49.9684ZM78.2944 56.4596C77.0963 57.5056 75.5396 58.8816 74.2163 60.0934C73.4428 60.8017 72.7658 61.4379 72.2895 61.9127C72.2021 61.9999 72.1263 62.0796 72.0591 62.149V65.1148C73.1689 66.2118 74.6056 67.5978 75.8657 68.7359C76.6199 69.4171 77.274 69.9763 77.7417 70.3307C77.7979 70.3733 77.8507 70.4096 77.897 70.443H89.6284C89.728 70.3949 89.843 70.3332 89.9556 70.2594C89.9762 70.2458 89.9956 70.2314 90.0141 70.2184V56.6861C89.9955 56.673 89.9763 56.6578 89.9556 56.6441C89.843 56.5702 89.728 56.5076 89.6284 56.4596H78.2944ZM127.445 66.3531C127.813 66.8996 128.299 67.5575 128.794 68.1119C129.121 68.4769 129.402 68.7416 129.615 68.899C129.639 68.9173 129.663 68.9311 129.682 68.9439H209.446C210.266 68.6301 211.703 67.7172 212.262 66.1363V14.4996H127.445V66.3531ZM251.985 53.9547C248.411 53.9547 245.506 56.8565 245.506 60.4449C245.507 64.0332 248.411 66.9342 251.985 66.9342C255.558 66.9341 258.463 64.0331 258.463 60.4449C258.463 56.8566 255.559 53.9548 251.985 53.9547ZM300.884 53.9547C297.31 53.9547 294.406 56.8565 294.406 60.4449C294.406 64.0332 297.311 66.9342 300.884 66.9342C304.458 66.9341 307.363 64.0331 307.363 60.4449C307.363 56.8566 304.458 53.9548 300.884 53.9547ZM72.4516 34.6891C73.3068 35.1173 73.877 35.8275 74.2143 36.3424C74.5698 36.8849 74.8174 37.443 74.9507 37.8434L75.0532 38.151V50.7145C75.106 51.0817 75.0532 51.3813 75.0288 51.4977C74.9606 51.8231 74.8318 52.0878 74.7544 52.235C74.5857 52.5558 74.3515 52.8888 74.1304 53.1812C73.6695 53.7909 73.0175 54.5475 72.3179 55.3238C70.906 56.8905 69.1584 58.691 67.9809 59.8697L67.395 60.4557H62.0757C61.6146 60.4557 61.2731 60.2977 61.1714 60.2496C61.0238 60.1798 60.9059 60.104 60.8325 60.0543C60.6833 59.9531 60.5464 59.8399 60.4409 59.7486C60.2211 59.5583 59.9651 59.3122 59.7016 59.0475C59.1666 58.5096 58.4856 57.7821 57.7671 56.9957C56.3247 55.417 54.6654 53.5286 53.5776 52.2721L53.0903 51.7086V38.151L53.1929 37.8434C53.3262 37.443 53.5728 36.8849 53.9282 36.3424C54.2656 35.8274 54.8362 35.1173 55.6919 34.6891L56.1147 34.4771H72.0288L72.4516 34.6891ZM57.2739 38.5348C57.2001 38.6475 57.1384 38.763 57.0903 38.8629V50.2145C58.1352 51.4139 59.5098 52.9726 60.7202 54.2975C61.4277 55.0718 62.0633 55.7494 62.5376 56.2262C62.6238 56.3128 62.7021 56.3888 62.771 56.4557H65.7319C66.8274 55.3448 68.2108 53.9071 69.3472 52.6461C70.0275 51.8911 70.5859 51.2374 70.9399 50.7691C70.983 50.7122 71.0196 50.6587 71.0532 50.6119V38.8648C71.005 38.7646 70.9429 38.6482 70.8686 38.5348C70.8552 38.5143 70.8405 38.4956 70.8276 38.4771H57.3159C57.3029 38.4957 57.2874 38.5141 57.2739 38.5348ZM276.474 26.9898C282.01 27.2707 286.413 31.8542 286.414 37.4664L286.4 38.0055C286.119 43.5482 281.541 47.9556 275.935 47.9557L275.396 47.942C270.038 47.67 265.742 43.3694 265.47 38.0055L265.457 37.4664C265.457 31.6733 270.148 26.9764 275.935 26.9762L276.474 26.9898ZM275.935 30.9762C272.362 30.9764 269.457 33.8783 269.457 37.4664C269.457 41.0546 272.362 43.9554 275.935 43.9557C279.509 43.9556 282.413 41.0547 282.414 37.4664C282.413 33.8782 279.509 30.9762 275.935 30.9762Z" fill="#FF8200"/>
</svg>
