<svg width="348" height="444" viewBox="0 0 348 444" fill="none" xmlns="http://www.w3.org/2000/svg">
<path d="M175.5 70C242.603 70 297 120.144 297 182C297 200.09 292.344 217.177 284.082 232.302C283.99 232.478 283.892 232.658 283.787 232.843C283.758 232.895 283.73 232.948 283.701 233H283.698C282.715 234.704 281.236 236.742 279.455 239.031C277.233 241.887 274.418 245.285 271.254 249.127C264.907 256.832 257.07 266.421 249.366 277.466C233.944 299.575 219.22 327.284 218.002 357H227V402C227 404.845 226.107 409.036 223.372 412.512C220.61 416.022 216.106 418.619 209.32 418.506C207.622 418.569 205.477 418.628 203 418.683V430C203 437.732 196.732 444 189 444H163C155.389 444 149.197 437.926 149.005 430.361L149 430V418.753C146.607 418.685 144.554 418.602 142.958 418.501C136.017 418.69 131.428 416.07 128.628 412.512C125.893 409.036 125 404.845 125 402V357H133.451C131.948 327.663 117.383 300.327 102.134 278.466C94.4295 267.421 86.5926 257.832 80.2461 250.127C77.0816 246.285 74.2674 242.887 72.0449 240.031C69.8495 237.21 68.1143 234.77 67.1982 232.867L67.2197 232.856C58.7675 217.595 54 200.311 54 182C54 120.144 108.397 70 175.5 70ZM199 418.762C185.667 418.997 166.076 419.093 153 418.845V430L153.013 430.515C153.281 435.798 157.65 440 163 440H189C194.523 440 199 435.523 199 430V418.762ZM129 372.5H147.5V376.5H129V394H185.5V398H129V402C129 404.155 129.707 407.414 131.771 410.038C133.757 412.562 137.137 414.682 142.937 414.501L143.033 414.498L143.129 414.504C155.313 415.29 195.698 415.005 209.062 414.514L209.062 414.501C209.144 414.504 209.224 414.503 209.305 414.505C209.344 414.503 209.384 414.503 209.423 414.502V414.508C215.003 414.592 218.284 412.509 220.229 410.038C222.293 407.414 223 404.155 223 402V398H202V394H223V376.5H165V372.5H223V361H129V372.5ZM175.5 74C110.294 74 58 122.654 58 182C58 200.406 63.0321 217.783 71.918 233H71.8799C72.6858 234.247 73.7973 235.769 75.2021 237.574C77.3813 240.375 80.1498 243.717 83.334 247.583C89.6849 255.293 97.6104 264.99 105.414 276.178C120.839 298.291 135.951 326.458 137.454 357H216L214.002 356.92C215.243 326.024 230.506 297.513 246.086 275.178C253.89 263.99 261.815 254.293 268.166 246.583C271.35 242.717 274.119 239.375 276.298 236.574C277.93 234.477 279.166 232.762 279.986 231.416C288.307 216.582 293 199.771 293 182C293 122.654 240.706 74 175.5 74ZM139.114 100.114C141.593 98.8991 144.588 99.9236 145.804 102.402C147.019 104.882 145.995 107.878 143.516 109.094C114.517 123.312 100.872 142.689 95.2832 160.841C89.633 179.192 92.1035 196.68 95.998 206.952C96.9767 209.534 95.6767 212.421 93.0947 213.399C90.5128 214.378 87.6265 213.079 86.6475 210.497C82.0582 198.392 79.3474 178.615 85.7256 157.898C92.1652 136.983 107.759 115.488 139.114 100.114ZM0.742181 109.195C1.25059 108.215 2.45798 107.833 3.43847 108.341L47.3818 131.128C48.3624 131.636 48.7448 132.844 48.2363 133.824C47.7277 134.804 46.5204 135.187 45.54 134.679L1.59765 111.892C0.617378 111.383 0.233954 110.176 0.742181 109.195ZM344.228 108.341C345.208 107.833 346.415 108.215 346.924 109.195C347.432 110.176 347.049 111.383 346.068 111.892L302.126 134.679C301.146 135.187 299.938 134.804 299.43 133.824C298.921 132.844 299.304 131.636 300.284 131.128L344.228 108.341ZM28.5859 66.0254C29.3673 65.245 30.6334 65.2463 31.4141 66.0273L66.3975 101.049C67.1776 101.83 67.1768 103.096 66.3955 103.877C65.614 104.657 64.3479 104.656 63.5674 103.875L28.585 68.8545C27.8046 68.0731 27.8047 66.806 28.5859 66.0254ZM316.252 66.0273C317.033 65.2462 318.299 65.245 319.08 66.0254C319.861 66.806 319.862 68.073 319.081 68.8545L284.099 103.875C283.318 104.656 282.052 104.657 281.271 103.877C280.489 103.097 280.488 101.83 281.269 101.049L316.252 66.0273ZM70.2519 33.3066C71.187 32.7187 72.4217 33.0006 73.0098 33.9355L99.3594 75.8398C99.9472 76.7749 99.6655 78.0097 98.7305 78.5977C97.7954 79.1852 96.5605 78.9037 95.9726 77.9688L69.624 36.0645C69.0363 35.1295 69.3172 33.8947 70.2519 33.3066ZM274.656 33.9355C275.244 33.0005 276.479 32.7188 277.414 33.3066C278.349 33.8946 278.63 35.1294 278.042 36.0645L251.693 77.9688C251.105 78.9037 249.871 79.1854 248.936 78.5977C248.001 78.0097 247.719 76.7749 248.307 75.8398L274.656 33.9355ZM118.627 8.94141C119.693 8.65077 120.792 9.27914 121.083 10.3447L134.107 58.1006C134.398 59.1662 133.77 60.265 132.704 60.5557C131.639 60.8459 130.54 60.2178 130.249 59.1523L117.224 11.3975C116.933 10.332 117.562 9.23227 118.627 8.94141ZM226.583 10.3447C226.874 9.27914 227.973 8.65085 229.039 8.94141C230.104 9.23218 230.733 10.3319 230.442 11.3975L217.417 59.1523C217.126 60.2178 216.027 60.846 214.962 60.5557C213.896 60.265 213.268 59.1661 213.559 58.1006L226.583 10.3447ZM174 0C175.105 6.59688e-05 176 0.895471 176 2V51.5C176 52.6045 175.105 53.4999 174 53.5C173.944 53.5 173.888 53.4958 173.833 53.4912C173.778 53.4958 173.722 53.5 173.666 53.5C172.562 53.4998 171.666 52.6044 171.666 51.5V2C171.666 0.89555 172.562 0.000194467 173.666 0C173.722 0 173.778 0.0032748 173.833 0.0078125C173.888 0.00326695 173.944 5.06405e-06 174 0Z" fill="#007DFF"/>
</svg>
